# xmcd CD database file generated by Grip 3.0.7
# 
# Track frame offsets:
#       150
#       31258
#       45490
#       61341
#       77032
#       90579
#       104900
#       119623
#       134413
#       149446
#       164799
#       179831
#       193599
#       207429
#       221392
#       235877
#       250484
#       262460
#       275544
#       289008
#       303634
#       317198
#       331681
# 
# Disc length: 4581 seconds
# 
# Revision: 1
# Processed by: cddbd v1.5.2PL0 Copyright (c) Steve Scherf et al.
# Submitted via: Grip 3.0.7
# 
DISCID=7611e317
DTITLE=Lonnie Johnson - The Original Guitar Wizard: Jersey Belle Blues  (Disc
DTITLE=3)
DYEAR=2004
DGENRE=Blues
TTITLE0=I Got The Best Jelly Roll In Town, Pts 1 and 2
TTITLE1=The Dirty Dozen
TTITLE2=I Just Can't Stand These Blues
TTITLE3=Deep Sea Blues
TTITLE4=Long Black Train
TTITLE5=I Have To Do My Time
TTITLE6=No More Troubles Now
TTITLE7=You're Getting Old On Your Job
TTITLE8=Don't Wear It Out
TTITLE9=Got The Blues For Murder Only
TTITLE10=Let All Married Women Alone
TTITLE11=Beautiful But Dumb
TTITLE12=Sleepy Water Blues
TTITLE13=Uncle Red, Don't Use Your Head
TTITLE14=I'm Nuts About That Gal
TTITLE15=Racketeers Blues
TTITLE16=Swing Out Rhythm
TTITLE17=Why Women Go Wrong
TTITLE18=Jersey Belle Blues
TTITLE19=The Loveless Blues
TTITLE20=I'm Just Dumb
TTITLE21=Get Yourself Together
TTITLE22=Crowing Rooster Blues
EXTD=
EXTT0=
EXTT1=
EXTT2=
EXTT3=
EXTT4=
EXTT5=
EXTT6=
EXTT7=
EXTT8=
EXTT9=
EXTT10=
EXTT11=
EXTT12=
EXTT13=
EXTT14=
EXTT15=
EXTT16=
EXTT17=
EXTT18=
EXTT19=
EXTT20=
EXTT21=
EXTT22=
PLAYORDER=
